<svg width="177" height="164" viewBox="0 0 177 164" fill="none" xmlns="http://www.w3.org/2000/svg">
<path fill-rule="evenodd" clip-rule="evenodd" d="M85.2908 4.25C81.6958 12.167 80.5228 17.007 81.7298 18.939C82.7618 20.592 81.8868 20.756 68.6678 21.398C60.8758 21.777 51.3498 22.528 47.4998 23.069C27.6998 25.847 12.9998 28.823 12.9998 30.053C12.9998 30.997 19.3628 32.977 22.4998 33.01C27.4598 33.062 27.3828 34.232 21.5798 46.913C18.5108 53.621 15.9998 59.321 15.9998 59.58C15.9998 59.839 13.9748 64.327 11.4998 69.554C9.02481 74.78 6.99981 79.267 6.99981 79.524C6.99981 79.781 5.42481 83.401 3.49981 87.569C-1.49619 98.384 -1.0972 101.997 5.83381 108.723C19.2118 121.706 41.4078 121.882 55.2588 109.116C60.3958 104.38 62.9448 98.257 61.2428 94.74C60.6468 93.508 58.3698 88.45 56.1828 83.5C53.9958 78.55 48.3348 65.837 43.6038 55.25C38.8718 44.662 34.9998 35.871 34.9998 35.713C34.9998 35.555 37.8128 35.789 41.2498 36.232C44.6878 36.676 51.5498 37.283 56.4998 37.582C61.4498 37.882 66.9518 38.509 68.7258 38.976C70.4998 39.443 72.8548 39.589 73.9598 39.3C75.0638 39.011 77.0928 39.058 78.4678 39.403L80.9678 40.03L80.4198 67.765C80.1188 83.019 80.2678 101.125 80.7498 108C81.6018 120.138 81.5618 120.587 79.3498 123.5C74.8498 129.428 74.0518 130 70.2498 130.015C60.8368 130.052 44.7188 135.999 40.9098 140.841C33.4508 150.324 46.9728 159.561 73.3218 162.984C97.6708 166.147 128.042 160.681 135.523 151.79C140.537 145.831 137.68 139.89 127.497 135.104C122.009 132.524 111.881 130.035 106.789 130.015C102.869 129.999 102.354 129.613 98.6198 123.903C96.3498 120.432 96.2968 119.893 97.0698 108.403C98.1138 92.905 98.1028 66.502 97.0468 52C96.5868 45.675 96.4078 40.292 96.6498 40.038C96.8918 39.785 98.9818 39.498 101.295 39.401C103.608 39.304 107.975 38.952 111 38.618C114.025 38.285 119.65 37.77 123.5 37.474C127.35 37.177 133.142 36.68 136.371 36.368C139.599 36.056 142.037 36.183 141.789 36.65C141.096 37.95 138.743 43.199 131.992 58.5C124.644 75.151 122.709 79.483 118.934 87.732C114.343 97.761 114.549 101.07 120.16 107.444C122.644 110.267 126.773 113.381 130.41 115.175C135.813 117.84 137.516 118.179 145.5 118.18C150.45 118.18 155.175 117.984 156 117.744C166.853 114.586 177 105.283 177 98.489C177 95.619 172.801 85.26 163.892 66.151C161.752 61.559 160 57.592 160 57.337C160 56.674 155.312 46.212 152.973 41.655C149.427 34.746 149.993 33.847 158.745 32.486C162.739 31.865 164.853 30.52 163.679 29.346C161.716 27.383 126.511 22.262 109.032 21.397L94.9998 20.702L94.9848 16.601C94.9628 10.638 90.7748 0 88.4498 0C87.7728 0 86.3518 1.913 85.2908 4.25ZM33.4708 43.53C34.8618 46.571 35.9998 49.259 35.9998 49.502C35.9998 49.746 37.1078 52.32 38.4618 55.223C39.8158 58.125 43.3648 66.125 46.3488 73C52.2248 86.536 52.1628 87.201 45.2418 84.913C40.7738 83.436 19.2108 83.299 16.4298 84.73C15.3688 85.276 13.2708 86.017 11.7688 86.376C8.6148 87.13 8.58681 87.267 13.8878 75.725C15.5998 71.999 16.9998 68.753 16.9998 68.513C16.9998 68.273 18.9438 63.897 21.3198 58.788C23.6958 53.68 26.7038 46.913 28.0038 43.75C29.3038 40.587 30.4968 38 30.6548 38C30.8118 38 32.0798 40.488 33.4708 43.53ZM152.013 50.5C156.928 61.689 158.306 64.787 163.912 77.247C168.29 86.979 168.309 87.112 165.231 86.376C163.729 86.017 161.643 85.282 160.595 84.743C155.531 82.139 129.413 84.048 125.184 87.332C124.461 87.894 125.072 85.687 126.543 82.427C128.014 79.167 131.46 71.325 134.201 65C143.025 44.639 146.161 37.809 146.502 38.214C146.634 38.371 149.114 43.9 152.013 50.5Z" fill="#FFFF00"/>
<path fill-rule="evenodd" clip-rule="evenodd" d="M86.3029 2.25C85.7329 3.488 84.7199 5.664 84.0519 7.088C83.3829 8.511 82.7599 12.22 82.6679 15.33L82.4999 20.984L77.4999 21.129C74.7499 21.209 71.5999 21.254 70.4999 21.229C69.3999 21.204 64.6749 21.62 59.9999 22.155C55.3249 22.69 49.4749 23.311 46.9999 23.535C44.5249 23.759 41.3749 24.14 39.9999 24.382C37.2679 24.863 28.1009 26.327 26.4999 26.537C21.2139 27.233 16.0959 28.322 15.0369 28.977C12.8289 30.342 14.7929 31.784 19.7989 32.472C27.7919 33.572 27.7699 33.386 21.5799 46.913C18.5109 53.621 15.9999 59.321 15.9999 59.58C15.9999 59.839 13.9749 64.327 11.4999 69.554C9.02495 74.78 6.99995 79.267 6.99995 79.524C6.99995 79.781 5.42495 83.401 3.49995 87.569C-0.154053 95.479 -0.628053 98.217 0.939947 102.341C2.50395 106.455 8.95195 112.083 15.7429 115.261C21.1749 117.802 23.3439 118.258 29.8319 118.221C38.8779 118.168 40.7099 117.803 46.8589 114.826C56.8789 109.976 63.8829 100.195 61.2429 94.74C60.6469 93.508 58.3699 88.45 56.1829 83.5C53.9959 78.55 48.3349 65.837 43.6039 55.25C38.8719 44.662 34.9999 35.861 34.9999 35.691C34.9999 35.521 38.2629 35.752 42.2499 36.203C53.2909 37.454 78.4689 39.547 80.4999 39.384C81.1479 39.332 81.2659 43.208 80.8339 50.402C79.9789 64.638 80.0139 96.473 80.8989 110C81.546 119.903 81.4569 120.671 79.3289 123.5C74.892 129.4 74.0559 130 70.2499 130.015C60.8369 130.052 44.7189 135.999 40.9099 140.841C33.4509 150.324 46.9729 159.561 73.3219 162.984C97.6709 166.147 128.042 160.681 135.523 151.79C140.537 145.831 137.68 139.89 127.497 135.104C122.009 132.524 111.881 130.035 106.789 130.015C102.869 129.999 102.354 129.613 98.6199 123.903C96.35 120.432 96.2969 119.893 97.0699 108.403C98.1139 92.905 98.1029 66.502 97.0469 52C96.5869 45.675 96.3679 40.332 96.5609 40.127C96.9229 39.743 109.884 38.386 120.5 37.62C123.8 37.382 130.059 36.848 134.408 36.434C139.103 35.986 142.117 36.05 141.826 36.59C141.108 37.925 138.901 42.841 131.992 58.5C124.622 75.202 122.707 79.489 118.893 87.82C114.707 96.964 114.944 101.518 119.898 107.147C123.672 111.434 132.431 116.591 137.865 117.724C143.4 118.878 153.768 118.255 158.585 116.48C168.137 112.959 177 104.075 177 98.021C177 95.569 172.451 84.509 163.892 66.151C161.752 61.559 160 57.592 160 57.337C160 56.674 155.312 46.212 152.973 41.655C151.888 39.541 151 36.962 151 35.925C151 34.026 151.602 33.761 159.426 32.216C164.183 31.277 165.189 29.294 161.321 28.48C159.769 28.154 156.7 27.468 154.5 26.955C152.3 26.443 148.25 25.754 145.5 25.425C142.75 25.095 139.375 24.636 138 24.404C136.625 24.173 133.475 23.79 131 23.555C128.525 23.319 122.45 22.687 117.5 22.151C112.55 21.615 105.596 21.12 102.047 21.052C98.4979 20.983 95.5009 20.831 95.3879 20.714C95.2739 20.596 95.0429 18.475 94.8729 16C94.4179 9.359 90.6949 0 88.5079 0C87.865 0 86.8719 1.012 86.3029 2.25ZM33.4709 43.53C34.8619 46.571 35.9999 49.24 35.9999 49.46C35.9999 49.68 37.3029 52.704 38.8959 56.18C44.9409 69.374 52.0619 86.271 51.7219 86.611C51.5269 86.806 49.8219 86.485 47.9339 85.897C39.2549 83.195 23.1549 82.935 15.0679 85.367C12.0809 86.265 9.50495 87 9.34295 87C8.91295 87 10.3709 83.384 13.8879 75.725C15.5999 71.999 16.9999 68.753 16.9999 68.513C16.9999 68.273 18.9439 63.897 21.3199 58.788C23.6959 53.68 26.7039 46.913 28.0039 43.75C29.3039 40.587 30.4969 38 30.6549 38C30.8119 38 32.0799 40.488 33.4709 43.53ZM152.013 50.5C156.928 61.689 158.306 64.787 163.912 77.247C166.402 82.783 168.048 87 167.719 87C167.591 87 165.915 86.539 163.993 85.976C153.637 82.94 138.397 82.829 129.811 85.728L124.191 87.625L126.704 82.063C128.086 79.003 131.46 71.325 134.201 65C143.025 44.639 146.161 37.809 146.502 38.214C146.634 38.371 149.114 43.9 152.013 50.5Z" fill="#808000"/>
<path fill-rule="evenodd" clip-rule="evenodd" d="M87.2288 1.51803C86.5298 2.31203 86.0798 3.10203 86.2288 3.27403C86.3778 3.44703 85.6898 4.82403 84.7008 6.33403C83.5648 8.06703 82.8268 11.275 82.7008 15.031C82.5498 19.493 82.1248 21.016 80.9998 21.118C80.1748 21.193 75.6748 21.359 70.9998 21.487C66.3248 21.614 60.2498 22.053 57.4998 22.462C54.7498 22.87 50.4748 23.338 47.9998 23.502C45.5248 23.665 41.9248 24.109 39.9998 24.487C38.0748 24.866 35.3748 25.3 33.9998 25.453C29.9188 25.904 17.6428 28.029 15.6948 28.621C14.7018 28.923 14.0518 29.655 14.2488 30.247C14.6138 31.341 15.4778 31.601 22.3358 32.682C24.4458 33.014 26.3708 33.803 26.6128 34.435C26.8558 35.066 25.3218 39.164 23.2058 43.541C21.0898 47.919 18.0718 54.65 16.4998 58.5C14.9268 62.35 13.2708 65.927 12.8198 66.45C12.3688 66.973 11.9998 68.21 11.9998 69.2C11.9998 70.19 11.6398 71 11.2008 71C10.5698 71 8.01282 76.502 7.48282 79C7.42382 79.275 5.66582 83.1 3.57482 87.5C-0.0231791 95.073 -0.164181 95.735 0.924819 99.906C2.12682 104.506 6.59682 110.803 8.74982 110.928C9.43782 110.968 9.99982 111.36 9.99982 111.801C9.99982 113.25 19.2968 117.153 24.9518 118.079C35.8538 119.863 49.4288 115.237 56.9278 107.182C58.8128 105.157 60.2338 103.5 60.0858 103.5C59.9368 103.5 60.3698 102.283 61.0478 100.795C62.6188 97.345 63.8308 100.508 43.6038 55.25C38.8718 44.662 34.9998 35.841 34.9998 35.646C34.9998 35.163 40.5468 35.557 45.9998 36.427C48.4748 36.822 52.2998 37.275 54.4998 37.435C56.6998 37.595 63.2248 38.117 68.9998 38.595C74.7748 39.073 79.9498 39.427 80.4998 39.383C81.1398 39.33 81.2948 42.932 80.9298 49.401C80.0668 64.696 80.0298 97.129 80.8628 109.5C81.5668 119.971 81.4938 120.644 79.3378 123.5C74.8688 129.42 74.4448 129.669 67.8138 130.288C56.6468 131.331 42.5498 137.236 40.0428 141.92C34.9668 151.405 47.7968 159.594 72.9088 162.895C87.4028 164.8 99.5528 164.124 119.073 160.326C123.705 159.424 134.382 153.559 136.34 150.84C139.364 146.641 137.963 141.753 132.708 138.166C127.249 134.44 117.465 131.114 109.681 130.34C102.292 129.604 100.36 128.737 99.4488 125.751C99.0718 124.513 98.1938 122.825 97.4968 122C96.5258 120.85 96.4238 117.816 97.0598 109C97.9608 96.516 97.5118 48.461 96.4468 43.352C95.6718 39.635 96.1288 39.475 110.5 38.441C122.89 37.549 126.705 37.188 132.5 36.362C142.168 34.983 142.425 35.171 139.541 41.5C132.928 56.01 129.276 64.942 129.757 65.424C130.074 65.741 129.808 66 129.167 66C128.525 66 128 66.419 128 66.93C128 67.442 126.65 70.817 125 74.43C123.35 78.044 120.65 83.956 119 87.57C115.779 94.624 114.983 102.286 117.324 103.7C118.052 104.14 119.728 105.985 121.049 107.8C125.498 113.915 142.005 120.074 149.692 118.488C156.274 117.129 164 114.62 164 113.842C164 113.379 164.581 113 165.292 113C166.809 113 174.267 105.476 175.883 102.316C176.497 101.114 177 99.077 177 97.787C177 95.544 172.244 84.065 163.892 66.151C161.752 61.559 160 57.592 160 57.337C160 56.674 155.312 46.212 152.973 41.655C151.888 39.541 151 36.787 151 35.536C151 33.616 151.665 33.169 155.25 32.68C162.162 31.737 163.372 31.384 163.767 30.2C163.973 29.58 162.873 28.807 161.321 28.48C159.769 28.154 156.7 27.449 154.5 26.914C152.3 26.378 148.25 25.771 145.5 25.563C142.75 25.356 139.375 24.912 138 24.577C136.625 24.242 132.8 23.759 129.5 23.503C126.2 23.248 122.375 22.78 121 22.464C119.625 22.147 114 21.733 108.5 21.544C103 21.355 97.7128 21.156 96.7498 21.1C95.4868 21.028 94.9998 20.15 94.9998 17.943C94.9998 13.618 92.9668 5.78903 91.3588 3.92103C90.6118 3.05303 89.9998 1.81503 89.9998 1.17103C89.9998 -0.398967 88.7848 -0.246967 87.2288 1.51803ZM33.0608 42.75C36.8788 51.342 39.1718 56.456 40.5708 59.5C44.6758 68.431 52.0278 86.306 51.7218 86.611C51.5268 86.806 49.8218 86.499 47.9338 85.929C38.1498 82.975 23.0698 82.991 13.0068 85.967C11.0848 86.535 9.42882 87 9.32582 87C8.77482 87 10.9978 81.023 12.6738 78C13.7408 76.075 15.2318 72.925 15.9878 71C16.7428 69.075 19.2238 63.45 21.5008 58.5C23.7768 53.55 26.7038 46.913 28.0038 43.75C29.3038 40.587 30.4988 38 30.6588 38C30.8188 38 31.8998 40.138 33.0608 42.75ZM152.013 50.5C156.928 61.689 158.306 64.787 163.912 77.247C168.289 86.977 168.307 87.105 165.231 86.421C163.729 86.087 161.6 85.546 160.5 85.218C156.345 83.98 155.25 83.884 145.5 83.895C138.403 83.903 133.856 84.454 129.837 85.79L124.173 87.674L125.049 85.371C125.531 84.104 126.793 81.365 127.853 79.284C128.914 77.203 131.887 70.569 134.46 64.543C142.17 46.485 146.147 37.791 146.502 38.214C146.634 38.371 149.114 43.9 152.013 50.5Z" fill="#FFC016"/>
<path fill-rule="evenodd" clip-rule="evenodd" d="M82.6549 24.8289C80.5809 27.1209 80.5079 32.7989 82.5239 35.0269C84.6059 37.3269 83.3949 40.2139 80.6319 39.5389C79.4589 39.2529 79.0609 39.2759 79.7469 39.5919C80.7199 40.0379 80.8709 46.2629 80.4349 67.8319C80.1269 83.0499 80.2689 101.125 80.7509 108C81.6079 120.218 81.5749 120.564 79.3139 123.327C78.0409 124.881 76.9999 126.553 76.9999 127.042C76.9999 128.638 73.5229 129.84 67.2149 130.423C56.3959 131.424 42.5179 137.296 40.0429 141.92C34.9669 151.405 47.7969 159.594 72.9089 162.895C87.4029 164.8 99.5529 164.124 119.073 160.326C123.705 159.424 134.382 153.559 136.34 150.84C139.364 146.641 137.963 141.753 132.708 138.166C127.249 134.44 117.465 131.114 109.681 130.34C102.292 129.604 100.36 128.737 99.4489 125.751C99.0719 124.513 98.1939 122.825 97.4969 122C96.5259 120.85 96.4239 117.816 97.0599 109C97.9699 96.3929 97.5079 48.4429 96.4269 43.2499C95.8569 40.5119 96.0459 39.9879 97.6249 39.9209C98.9599 39.8649 98.7069 39.5529 96.7499 38.8379C93.6349 37.6999 93.3389 36.7929 95.4999 34.9999C96.3419 34.3009 96.9999 32.1219 96.9999 30.0329C96.9999 22.9429 90.3469 20.6979 88.1359 27.0409C87.0569 30.1349 84.3279 31.0199 83.3919 28.5779C83.0919 27.7959 83.3459 26.2209 83.9579 25.0779C85.3309 22.5129 84.8359 22.4179 82.6549 24.8289ZM29.0269 32.3179C26.7749 35.9069 19.5469 51.0049 16.4929 58.4999C14.9239 62.3499 13.2709 65.9279 12.8199 66.4499C12.3689 66.9729 11.9999 68.2099 11.9999 69.1999C11.9999 70.1899 11.5499 70.9999 10.9999 70.9999C10.4499 70.9999 9.9999 71.4209 9.9999 71.9349C9.9999 72.4489 9.4749 74.1369 8.8339 75.6849C8.1919 77.2329 7.6019 78.7249 7.5219 78.9999C7.4419 79.2749 5.7169 83.0199 3.6879 87.3229C-0.559101 96.3319 -0.848101 98.0339 1.9999 97.2899C3.1599 96.9859 3.9999 97.2589 3.9999 97.9399C3.9999 98.5849 6.1379 100.075 8.7499 101.252C12.6189 102.995 15.9729 103.471 26.8359 103.815C42.7849 104.319 51.2269 102.9 55.0769 99.0659C56.4939 97.6549 58.4659 96.6569 59.4599 96.8489C61.8669 97.3139 61.1049 94.2279 56.0369 82.9999C53.9279 78.3249 49.6099 68.6499 46.4429 61.4999C43.2759 54.3499 40.2669 48.2249 39.7569 47.8879C39.2469 47.5519 38.9119 46.9709 39.0139 46.5979C39.3999 45.1849 34.5699 34.6389 32.5289 32.4369L30.3959 30.1359L29.0269 32.3179ZM144.158 33.0059C143.426 34.6589 142.491 35.8039 142.08 35.5499C141.669 35.2959 141.333 35.6929 141.333 36.4329C141.333 37.1729 140.622 39.2899 139.754 41.1389C134.182 52.9939 129.267 64.9339 129.757 65.4239C130.074 65.7409 129.808 65.9999 129.167 65.9999C128.525 65.9999 128 66.4189 128 66.9299C128 67.4419 126.65 70.8169 125 74.4299C123.35 78.0439 120.65 83.9559 119 87.5699C115.504 95.2259 115.387 96.1869 117.789 97.5129C128.712 103.54 128.524 103.5 146 103.5C160.943 103.5 162.955 103.29 167.319 101.276C171.564 99.3159 172.1 98.7239 171.819 96.3019C171.563 94.0939 170.416 93.0069 166 90.7889C154.322 84.9219 137.431 85.0079 125.638 90.9949C120.152 93.7799 119.876 93.8269 121.341 91.7349C123.469 88.6979 128.226 78.8119 134.206 64.9999C142.968 44.7619 146.16 37.8069 146.502 38.2139C146.634 38.3709 149.114 43.8999 152.013 50.4999C157.19 62.2849 159.498 67.4669 164.516 78.5649C165.9 81.6259 167.179 85.0899 167.358 86.2619C167.537 87.4349 168.216 88.5719 168.868 88.7889C169.52 89.0069 170.951 90.9429 172.047 93.0919C174.164 97.2409 175.424 97.9439 176.362 95.4999C176.678 94.6749 176.426 93.9999 175.802 93.9999C175.178 93.9999 174.921 93.7459 175.231 93.4359C175.809 92.8579 171.457 82.3599 164.128 66.6509C161.858 61.7839 160 57.5919 160 57.3369C160 56.6739 155.312 46.2119 152.973 41.6549C151.888 39.5409 151 37.1179 151 36.2699C151 35.0759 146.703 29.9999 145.693 29.9999C145.58 29.9999 144.89 31.3529 144.158 33.0059ZM33.0609 42.7499C34.2219 45.3619 36.0329 49.4119 37.0859 51.7499C40.8679 60.1489 42.8369 64.6769 47.6249 75.9999C50.2999 82.3249 52.7419 87.7249 53.0519 87.9999C54.1379 88.9629 56.9999 93.4519 56.9999 94.1919C56.9999 94.6029 55.4059 93.8579 53.4589 92.5359C41.8849 84.6819 18.7259 84.5159 7.7499 92.2089C4.3289 94.6059 4.2369 93.4229 7.4999 88.9999C8.8749 87.1359 9.9999 84.9979 9.9999 84.2479C9.9999 83.4979 11.0379 80.9979 12.3059 78.6919C13.5739 76.3869 15.2309 72.9249 15.9869 70.9999C16.7429 69.0749 19.2239 63.4499 21.5009 58.4999C23.7769 53.5499 26.7039 46.9129 28.0039 43.7499C29.3039 40.5869 30.4989 37.9999 30.6589 37.9999C30.8189 37.9999 31.8999 40.1379 33.0609 42.7499ZM87.3799 59.4999C87.5099 75.0669 86.5999 81.9999 84.6799 80.0809C83.2829 78.6839 82.9939 45.6909 84.3499 42.4999C86.0669 38.4609 87.2609 45.1559 87.3799 59.4999ZM29.8129 83.6829C30.5339 83.9719 31.3969 83.9359 31.7289 83.6039C32.0609 83.2719 31.4709 83.0359 30.4169 83.0789C29.2519 83.1269 29.0149 83.3639 29.8129 83.6829ZM145.813 83.6829C146.534 83.9719 147.397 83.9359 147.729 83.6039C148.061 83.2719 147.471 83.0359 146.417 83.0789C145.252 83.1269 145.015 83.3639 145.813 83.6829ZM85.9999 125.673C85.9999 127.982 84.0579 131 82.5719 131C80.4139 131 79.8159 127.93 81.4789 125.391C83.0979 122.921 85.9999 123.102 85.9999 125.673ZM69.0889 134.871C71.3129 136.672 71.3359 136.838 69.7089 139.321C67.4039 142.839 61.3939 144.488 58.2899 142.454C55.6639 140.734 55.6219 140.575 57.0789 137.853C58.0939 135.956 63.1269 133.125 65.6389 133.039C66.2659 133.018 67.8179 133.842 69.0889 134.871Z" fill="#FE6A38"/>
<path fill-rule="evenodd" clip-rule="evenodd" d="M92.778 25.941C93.385 30.077 89.077 34.385 84.941 33.778C83.323 33.541 82 33.707 82 34.148C82 35.515 88.133 38.198 90.09 37.687C91.563 37.302 92.108 37.956 92.724 40.851C94.13 47.461 93.432 106.895 91.883 112.5C90.565 117.267 90.325 117.514 86.75 117.81C82.833 118.135 82.079 119.456 84.25 122.194C85.945 124.331 87.981 124.839 91.209 123.928C93.389 123.313 94.035 123.535 94.521 125.066C96.099 130.037 89.327 136.527 82.743 136.355L78.584 136.245L81.339 138.616C82.855 139.919 85.199 141.263 86.547 141.601C95.147 143.76 102.973 133.967 99.429 125.484C98.66 123.643 97.629 121.889 97.14 121.586C96.645 121.281 96.527 116.464 96.874 110.768C98.048 91.503 97.403 44 95.968 44C94.797 44 96.029 40.17 97.353 39.697C97.984 39.472 97.729 39.401 96.787 39.54C95.844 39.68 94.563 39.179 93.94 38.428C93.07 37.379 93.294 36.442 94.903 34.396C97.549 31.032 97.568 27.987 94.961 25.189C92.352 22.389 92.261 22.42 92.778 25.941ZM29.148 33.132C26.192 37.871 20.106 49.801 17.995 55C16.766 58.025 15.05 62.075 14.181 64C13.312 65.925 12.49 68.167 12.355 68.982C12.22 69.797 11.634 70.622 11.054 70.815C10.475 71.008 10 71.55 10 72.018C10 72.487 9.475 74.137 8.834 75.685C8.192 77.233 7.592 78.725 7.5 79C7.408 79.275 6.808 80.767 6.166 82.315C5.525 83.863 5 85.551 5 86.065C5 86.579 4.55 87 4 87C3.45 87 3 87.873 3 88.941C3 90.009 2.543 91.165 1.984 91.51C1.425 91.856 1.226 92.557 1.543 93.069C1.859 93.581 1.641 94 1.059 94C0.477 94 0 94.635 0 95.412C0 98.478 3.143 96.106 5.592 91.191C7.015 88.336 8.664 86 9.256 86C9.849 86 10.045 85.711 9.692 85.359C9.339 85.006 10.301 82.418 11.83 79.609C14.711 74.313 19.221 63.673 19.171 62.29C19.155 61.856 19.713 60.825 20.411 60C21.109 59.175 23.613 54 25.976 48.5C28.338 43 30.403 38.345 30.563 38.156C30.897 37.762 35.367 47.36 36.43 50.75C36.817 51.987 37.554 53 38.067 53C38.58 53 39 54.07 39 55.378C39 56.685 39.646 58.291 40.436 58.947C41.225 59.602 42.169 61.57 42.533 63.319C42.896 65.069 44.05 67.988 45.097 69.807C46.144 71.626 47 73.731 47 74.486C47 75.24 47.563 76.452 48.25 77.179C48.938 77.905 49.654 79.4 49.842 80.5C50.029 81.6 50.595 82.651 51.098 82.835C51.601 83.02 51.758 83.582 51.447 84.085C51.136 84.588 51.344 85 51.91 85C52.475 85 52.65 85.749 52.299 86.664C51.894 87.719 52.055 88.084 52.739 87.661C53.37 87.271 54.724 88.864 55.996 91.491C57.193 93.965 58.584 96.243 59.087 96.553C60.748 97.58 60.034 91.697 58.25 89.657C57.287 88.556 57.076 87.993 57.78 88.405C58.483 88.818 57.696 86.635 56.03 83.555C54.363 80.475 53 77.29 53 76.477C53 75.665 52.523 75 51.941 75C51.359 75 51.16 74.55 51.5 74C51.84 73.45 51.656 73 51.09 73C50.525 73 50.322 72.325 50.638 71.5C50.955 70.675 50.689 70 50.048 70C49.407 70 49.16 69.55 49.5 69C49.84 68.45 49.566 68 48.892 68C48.218 68 47.949 67.718 48.293 67.373C48.638 67.028 48.171 65.341 47.255 63.623C46.338 61.905 45.681 60.162 45.794 59.75C45.907 59.338 45.523 59 44.941 59C44.359 59 44.119 58.616 44.409 58.147C44.699 57.678 44.29 56.441 43.5 55.397C42.71 54.354 42.049 52.713 42.032 51.75C42.014 50.787 41.523 50 40.941 50C40.359 50 40.16 49.55 40.5 49C40.84 48.45 40.615 48 40 48C39.385 48 39.138 47.586 39.45 47.081C39.763 46.575 39.307 45.45 38.438 44.581C37.568 43.711 37.204 43 37.629 43C38.053 43 37.86 42.46 37.2 41.8C36.54 41.14 36 40.02 36 39.311C36 38.603 35.334 37.23 34.519 36.261C33.704 35.293 32.467 33.705 31.769 32.733C30.574 31.07 30.421 31.093 29.148 33.132ZM144.399 33.901C143.393 35.605 142.216 37 141.784 37C141.353 37 141.053 37.337 141.118 37.75C141.459 39.906 140.89 42.05 140.107 41.566C139.323 41.082 137.788 44.897 138.067 46.634C138.124 46.987 137.79 47.552 137.325 47.888C136.86 48.225 135.418 50.975 134.12 54C132.823 57.025 131.115 60.737 130.324 62.25C129.534 63.763 129.25 65.007 129.693 65.015C130.137 65.024 130.05 65.361 129.5 65.765C128.191 66.727 125 73.654 125 75.534C125 76.34 124.55 77 124 77C123.45 77 123 77.661 123 78.47C123 79.278 122.108 81.528 121.017 83.47C119.926 85.411 119.262 87 119.54 87C119.818 87 119.359 88.048 118.52 89.33C117.68 90.611 117.295 91.961 117.663 92.33C118.032 92.698 117.85 93 117.26 93C116.67 93 116.423 93.9 116.71 95C116.998 96.1 117.518 96.994 117.867 96.987C118.215 96.98 119.831 94.167 121.458 90.737C123.085 87.307 124.709 84.275 125.068 84C126.113 83.2 129.112 77 128.454 77C128.126 77 128.564 76.293 129.429 75.429C130.293 74.564 131.014 73.102 131.032 72.179C131.049 71.255 131.71 69.646 132.5 68.603C133.29 67.559 133.699 66.322 133.409 65.853C133.119 65.384 133.31 65 133.833 65C134.611 65 135.454 63.075 136.46 59C136.528 58.725 137.352 57.06 138.292 55.3C139.231 53.539 140 51.402 140 50.55C140 49.697 140.477 49 141.059 49C141.641 49 141.881 48.616 141.591 48.147C141.301 47.678 141.71 46.441 142.5 45.397C143.29 44.354 143.951 42.712 143.968 41.75C143.986 40.788 144.477 40 145.059 40C145.641 40 145.84 39.55 145.5 39C145.16 38.45 145.584 38 146.441 38C147.298 38 148.034 38.563 148.077 39.25C148.276 42.502 149.06 44.431 157.733 63C158.632 64.925 159.415 66.725 159.472 67C159.576 67.503 160.809 70.253 165.073 79.5C166.341 82.25 167.293 84.838 167.189 85.25C167.085 85.662 167.477 86 168.059 86C168.641 86 168.84 86.45 168.5 87C168.16 87.55 168.318 88 168.852 88C169.385 88 170.802 90.025 172 92.5C173.198 94.975 174.308 97 174.467 97C174.625 97 175.373 96.239 176.128 95.308C177.06 94.158 177.099 93.857 176.25 94.367C175.14 95.034 174.734 93.987 175.085 91.362C175.132 91.011 174.66 90.408 174.035 90.022C173.411 89.636 172.827 88.348 172.737 87.16C172.648 85.972 172.194 85 171.728 85C171.263 85 171.16 84.55 171.5 84C171.84 83.45 171.566 83 170.892 83C170.218 83 169.93 82.737 170.252 82.415C171.088 81.579 168.994 76 167.843 76C167.315 76 167.16 75.55 167.5 75C167.84 74.45 167.737 74 167.272 74C166.806 74 166.354 73.05 166.267 71.888C166.179 70.727 165.339 68.927 164.399 67.888C163.459 66.85 162.977 66 163.328 66C163.679 66 163.148 64.537 162.148 62.75C161.148 60.963 159.996 58.15 159.587 56.5C159.179 54.85 158.092 52.665 157.172 51.645C156.252 50.625 155.649 49.725 155.832 49.645C156.556 49.328 154.725 44 153.892 44C153.401 44 153 43.293 153 42.429C153 41.564 152.365 40.222 151.589 39.446C150.813 38.67 150.368 37.015 150.6 35.768C150.832 34.52 150.74 34.106 150.395 34.848C149.943 35.819 149.274 35.442 147.999 33.499L146.23 30.802L144.399 33.901ZM79.669 39.683C80.311 40.142 81.044 42.089 81.296 44.009C81.735 47.353 81.749 47.335 81.627 43.577C81.544 41.016 80.979 39.515 80 39.251C78.977 38.976 78.872 39.113 79.669 39.683ZM80.411 85C80.411 94.625 80.561 98.563 80.745 93.75C80.928 88.937 80.928 81.062 80.745 76.25C80.561 71.438 80.411 75.375 80.411 85ZM29.813 83.683C30.534 83.972 31.397 83.936 31.729 83.604C32.061 83.272 31.471 83.036 30.417 83.079C29.252 83.127 29.015 83.364 29.813 83.683ZM145.813 83.683C146.534 83.972 147.397 83.936 147.729 83.604C148.061 83.272 147.471 83.036 146.417 83.079C145.252 83.127 145.015 83.364 145.813 83.683ZM81.232 116C81.232 117.925 81.438 118.713 81.689 117.75C81.941 116.787 81.941 115.213 81.689 114.25C81.438 113.287 81.232 114.075 81.232 116ZM65.813 130.683C66.534 130.972 67.397 130.936 67.729 130.604C68.061 130.272 67.471 130.036 66.417 130.079C65.252 130.127 65.015 130.364 65.813 130.683ZM108.75 130.662C109.438 130.94 110.563 130.94 111.25 130.662C111.938 130.385 111.375 130.158 110 130.158C108.625 130.158 108.063 130.385 108.75 130.662ZM125.321 137.038C127.058 141.642 124.772 144.862 117 148.759C107.437 153.553 98.003 155.263 81 155.281C64.883 155.298 52.249 152.987 44.358 148.577C40.981 146.689 40.024 146.494 39.597 147.607C39.303 148.373 39.525 149 40.09 149C40.656 149 40.876 149.392 40.579 149.872C39.98 150.841 45.77 156 47.458 156C48.047 156 50.259 156.927 52.372 158.059C54.485 159.192 56.428 159.905 56.689 159.645C56.95 159.384 58.691 159.808 60.557 160.588C62.424 161.368 66.93 162.198 70.571 162.432C74.211 162.666 77.447 163.114 77.762 163.428C78.76 164.427 97.243 164.029 104 162.864C107.575 162.247 111.287 161.773 112.25 161.809C113.213 161.846 114.001 161.566 114.002 161.188C114.003 160.81 115.651 160.382 117.664 160.238C119.677 160.094 121.88 159.514 122.56 158.95C123.24 158.386 124.821 157.727 126.074 157.486C127.328 157.244 128.611 156.699 128.927 156.273C129.242 155.848 130.175 155.355 131 155.178C133.247 154.695 138 149.144 138 147.003C138 143.295 136.092 140.251 132.33 137.954C130.224 136.668 128.2 135.59 127.833 135.558C127.467 135.526 126.829 135.162 126.417 134.75C124.756 133.089 124.238 134.17 125.321 137.038ZM41.807 139.75C40.045 141.802 38.724 144 39.253 144C39.457 144 40.622 142.65 41.842 141C44.252 137.74 44.23 136.929 41.807 139.75Z" fill="#FF0000"/>
<path fill-rule="evenodd" clip-rule="evenodd" d="M92.7781 25.941C93.3851 30.077 89.0771 34.385 84.9411 33.778C83.3231 33.541 82.0001 33.707 82.0001 34.148C82.0001 35.515 88.1331 38.198 90.0901 37.687C91.5631 37.302 92.1081 37.956 92.7241 40.851C94.1301 47.461 93.4321 106.895 91.8831 112.5C90.5651 117.267 90.3251 117.514 86.7501 117.81C82.8331 118.135 82.0791 119.456 84.2501 122.194C85.9451 124.331 87.9811 124.839 91.2091 123.928C93.3891 123.313 94.0351 123.535 94.5211 125.066C96.0991 130.037 89.3271 136.527 82.7431 136.355L78.5841 136.245L81.3391 138.616C82.8551 139.919 85.1991 141.263 86.5471 141.601C95.2131 143.776 102.972 133.964 99.3821 125.372C98.5871 123.47 97.3021 121.669 96.5251 121.371C95.5141 120.983 95.3541 120.198 95.9621 118.599C97.0491 115.74 97.4241 105.559 97.3841 80C97.3421 53.545 96.9501 44 95.9051 44C95.4421 44 95.3281 43.308 95.6531 42.463C95.9771 41.617 95.4631 40.064 94.5101 39.011C92.8621 37.19 92.8811 36.967 94.8891 34.414C97.5491 31.033 97.5721 27.992 94.9611 25.189C92.3521 22.389 92.2611 22.42 92.7781 25.941ZM29.0531 33.246C26.9071 36.621 18.6941 53.017 17.1491 57.009C16.4061 58.929 15.0731 62.075 14.1871 64C13.3011 65.925 12.5511 67.725 12.5201 68C12.4891 68.275 11.5201 70.525 10.3651 73C6.22708 81.868 5.00008 84.819 5.00008 85.901C5.00008 86.506 4.55008 87 4.00008 87C3.45008 87 3.00008 87.873 3.00008 88.941C3.00008 90.009 2.54308 91.165 1.98408 91.51C1.42508 91.856 1.20708 92.526 1.50008 93C1.79308 93.474 1.57508 94.144 1.01608 94.49C-0.495918 95.425 -0.211919 96.667 1.51408 96.667C2.47308 96.667 5.98408 90.717 11.0861 80.448C15.5171 71.528 19.2531 63.615 19.3881 62.865C19.5231 62.114 21.6511 57.225 24.1181 52C26.5841 46.775 29.0931 41.375 29.6921 40C30.7361 37.602 30.9071 37.778 33.8901 44.343C35.6011 48.107 37.0001 51.594 37.0001 52.093C37.0001 52.592 37.4501 53 38.0001 53C38.5501 53 39.0001 53.677 39.0001 54.504C39.0001 55.331 39.9001 57.686 41.0001 59.739C42.1001 61.791 43.0001 64.026 43.0001 64.705C43.0001 65.384 43.9001 67.542 45.0001 69.5C46.1001 71.458 47.0001 73.69 47.0001 74.459C47.0001 75.228 47.5631 76.452 48.2501 77.179C48.9381 77.905 49.6481 79.355 49.8281 80.4C50.0091 81.444 50.8001 82.943 51.5871 83.73C52.3741 84.517 52.7631 85.575 52.4501 86.081C52.1381 86.586 52.3181 87 52.8521 87C53.3851 87 54.8011 89.023 55.9971 91.494C57.1941 93.966 58.5841 96.243 59.0871 96.553C60.6371 97.512 60.0931 91.322 58.5111 90.009C57.6921 89.329 57.2351 88.428 57.4961 88.007C57.7561 87.585 56.8511 85.138 55.4851 82.567C54.1181 79.997 53.0001 77.436 53.0001 76.876C53.0001 76.315 52.3441 75.201 51.5421 74.4C50.7411 73.598 50.3391 72.28 50.6491 71.471C50.9601 70.662 50.6891 70 50.0481 70C49.4071 70 49.1601 69.55 49.5001 69C49.8401 68.45 49.5661 68 48.8921 68C48.2181 68 47.9661 67.701 48.3321 67.335C48.6971 66.969 47.8531 64.719 46.4561 62.335C45.0591 59.951 44.1741 58 44.4901 58C44.8061 58 43.8811 55.88 42.4341 53.289C40.9871 50.698 39.6341 47.693 39.4251 46.612C39.2171 45.531 38.5481 44.339 37.9381 43.962C37.3281 43.585 36.8351 42.877 36.8431 42.388C36.8631 41.077 34.2111 35.833 32.2201 33.246L30.4861 30.993L29.0531 33.246ZM144.386 33.923C143.387 35.615 142.312 37 141.997 37C141.683 37 141.357 37.905 141.274 39.01C141.191 40.116 140.42 41.723 139.561 42.581C138.703 43.44 138 45.011 138 46.071C138 47.132 137.662 48.002 137.25 48.004C136.467 48.008 132.591 56.717 133.151 57.215C133.328 57.372 132.429 59.188 131.155 61.25C129.88 63.313 129.211 65.007 129.668 65.015C130.126 65.024 130.05 65.361 129.5 65.765C128.191 66.727 125 73.654 125 75.534C125 76.34 124.475 77 123.833 77C123.192 77 122.949 77.282 123.294 77.628C123.639 77.973 122.823 80.223 121.481 82.628C120.138 85.032 119.266 87 119.543 87C119.82 87 119.359 88.048 118.52 89.33C117.68 90.611 117.295 91.961 117.663 92.33C118.032 92.698 117.85 93 117.26 93C116.67 93 116.423 93.9 116.71 95C116.998 96.1 117.518 96.994 117.867 96.987C118.215 96.98 119.831 94.167 121.458 90.737C123.085 87.307 124.709 84.275 125.068 84C126.214 83.122 128.939 77.272 128.436 76.769C128.17 76.503 128.638 75.716 129.476 75.02C130.314 74.324 131 73.129 131 72.364C131 71.599 131.412 70.191 131.916 69.236C133.131 66.933 136.403 59.633 136.504 59C136.548 58.725 137.352 57.06 138.292 55.3C139.231 53.539 140 51.402 140 50.55C140 49.697 140.525 49 141.167 49C141.808 49 142.032 48.698 141.663 48.33C141.295 47.961 141.598 46.724 142.338 45.58C143.078 44.436 143.988 42.263 144.361 40.75C145.033 38.021 147.93 36.852 148.077 39.25C148.248 42.051 148.935 43.904 152.963 52.421C156.924 60.798 159.175 65.855 159.454 67C159.633 67.735 162.816 74.705 165.847 81C167.304 84.025 168.384 86.838 168.248 87.25C168.112 87.662 168.41 88 168.911 88C169.412 88 170.802 90.025 172 92.5C173.198 94.975 174.308 97 174.467 97C174.625 97 175.373 96.239 176.128 95.308C177.06 94.158 177.099 93.857 176.25 94.367C175.14 95.034 174.734 93.987 175.085 91.362C175.132 91.011 174.727 90.448 174.185 90.112C173.643 89.775 173.042 88.6 172.85 87.5C172.657 86.4 172.133 85.23 171.684 84.9C171.234 84.57 170.742 83.67 170.59 82.9C169.763 78.724 168.675 76 167.833 76C167.31 76 167.16 75.55 167.5 75C167.84 74.45 167.737 74 167.272 74C166.806 74 166.354 73.05 166.267 71.888C166.179 70.727 165.296 68.879 164.304 67.783C163.312 66.687 162.687 65.725 162.916 65.645C163.304 65.509 162.063 62.416 158.245 54C157.372 52.075 156.546 49.914 156.41 49.198C156.273 48.482 155.45 46.81 154.581 45.483C153.711 44.156 153 42.417 153 41.619C153 40.82 152.584 40.017 152.075 39.833C151.566 39.65 151.004 38.825 150.825 38C150.646 37.175 150.249 36.275 149.942 36C149.635 35.725 148.669 34.453 147.794 33.173L146.204 30.846L144.386 33.923ZM81.1581 45C81.1581 46.375 81.3851 46.938 81.6621 46.25C81.9401 45.563 81.9401 44.438 81.6621 43.75C81.3851 43.063 81.1581 43.625 81.1581 45ZM80.4111 85C80.4111 94.625 80.5611 98.563 80.7451 93.75C80.9281 88.937 80.9281 81.062 80.7451 76.25C80.5611 71.438 80.4111 75.375 80.4111 85ZM29.8131 83.683C30.5341 83.972 31.3971 83.936 31.7291 83.604C32.0611 83.272 31.4711 83.036 30.4171 83.079C29.2521 83.127 29.0151 83.364 29.8131 83.683ZM145.813 83.683C146.534 83.972 147.397 83.936 147.729 83.604C148.061 83.272 147.471 83.036 146.417 83.079C145.252 83.127 145.015 83.364 145.813 83.683ZM81.1581 115C81.1581 116.375 81.3851 116.938 81.6621 116.25C81.9401 115.563 81.9401 114.438 81.6621 113.75C81.3851 113.063 81.1581 113.625 81.1581 115ZM65.8131 130.683C66.5341 130.972 67.3971 130.936 67.7291 130.604C68.0611 130.272 67.4711 130.036 66.4171 130.079C65.2521 130.127 65.0151 130.364 65.8131 130.683ZM108.75 130.662C109.438 130.94 110.563 130.94 111.25 130.662C111.938 130.385 111.375 130.158 110 130.158C108.625 130.158 108.063 130.385 108.75 130.662ZM125.321 137.038C127.058 141.642 124.772 144.862 117 148.759C107.437 153.553 98.0031 155.263 81.0001 155.281C64.8831 155.298 52.2491 152.987 44.3581 148.577C40.9811 146.689 40.0241 146.494 39.5971 147.607C39.3031 148.373 39.5251 149 40.0901 149C40.6561 149 40.8761 149.392 40.5791 149.872C39.9851 150.834 45.7601 155.996 47.4431 156.006C48.0241 156.01 49.7901 156.685 51.3681 157.508C52.9451 158.331 55.1951 159.186 56.3681 159.41C57.5401 159.633 59.7741 160.31 61.3311 160.914C67.0861 163.146 95.2111 164.318 104.929 162.731C110.951 161.748 113.5 161.236 113.5 161.009C113.5 160.93 114.991 160.671 116.813 160.434C118.635 160.197 121.027 159.521 122.128 158.932C123.229 158.342 125.112 157.671 126.312 157.44C127.512 157.209 128.646 156.563 128.832 156.004C129.018 155.445 129.527 155.208 129.963 155.477C130.399 155.747 132.441 154.377 134.501 152.435C137.794 149.328 138.178 148.485 137.684 145.441C137.375 143.537 136.525 141.383 135.796 140.653C134.565 139.422 125.401 134 124.551 134C124.344 134 124.69 135.367 125.321 137.038ZM41.2781 140.25C39.7791 142.188 38.8361 144 39.3261 144C39.5701 144 40.5071 142.875 41.4081 141.5C43.0941 138.927 43.0001 138.024 41.2781 140.25Z" fill="#C42F00"/>
<path fill-rule="evenodd" clip-rule="evenodd" d="M97.0788 98.583C97.1268 99.748 97.3638 99.985 97.6828 99.188C97.9718 98.466 97.9358 97.603 97.6038 97.271C97.2718 96.939 97.0358 97.529 97.0788 98.583ZM101.813 162.683C102.534 162.972 103.397 162.936 103.729 162.604C104.061 162.272 103.471 162.036 102.417 162.079C101.252 162.127 101.015 162.364 101.813 162.683Z" fill="#800000"/>
</svg>
